<!-- Generator: Adobe Illustrator 23.0.5, SVG Export Plug-In  -->
<svg version="1.1" xmlns="http://www.w3.org/2000/svg" xmlns:xlink="http://www.w3.org/1999/xlink" x="0px" y="0px" width="100%"
	 height="50%" viewBox="0 0 791.4 560.4" style="enable-background:new 0 0 791.4 560.4;" xml:space="preserve">
<style type="text/css">
	.st0{fill:#FFC8C8;}
	.st1{fill:#FFC9CB;}
	.st2{fill:#FDFDFC;}
	.st3{fill:#EBEBEA;}
	.st4{fill:#878787;}
</style>
<defs>
</defs>
<g>
	<path class="st0" d="M328.2,294.6c0-0.4,0-0.8,0-1.3C328.3,293.8,328.2,294.2,328.2,294.6c0,0.4,0.1,0.9,0.1,1.3
		C328.3,295.5,328.3,295.1,328.2,294.6z M330.6,313.2L330.6,313.2c-0.1-0.3-0.1-0.6-0.2-0.9L330.6,313.2c0,0.2,0,0.4,0,0.6
		C330.6,313.6,330.6,313.4,330.6,313.2z M341.3,335.4L341.3,335.4L341.3,335.4C341.3,335.4,341.3,335.4,341.3,335.4z"/>
	<path class="st1" d="M791.2,1.6H0.1c0,184.4,0,368.8-0.1,553.2c0,4.6,1,5.7,5.7,5.7c260-0.1,520-0.1,780,0c4.6,0,5.7-1,5.7-5.7
		C791.2,370.3,791.2,185.9,791.2,1.6z M600.6,352c-6.9,5.1-15,6.5-23.3,7c-10.5-0.4-20.9-2.2-31-5c-8.7-2.4-15.2-0.2-20.9,6
		c-6,3.2-12.1,5.9-19.2,4.9c-15.8,0-31.7,0-47.5,0.1H435c5.4-4.4,11.2-0.4,15-3.9l0.3-0.3c0,0,0,0,0,0c-0.3-0.3-0.6-0.7-0.9-1
		c0,0,0,0,0,0c-0.6-0.7-1.1-1.4-1.7-2.1v0c-0.5-0.7-1-1.4-1.5-2.2c-0.2-0.4-0.5-0.8-0.7-1.1c-0.2-0.4-0.5-0.7-0.7-1.1
		c-2.1-3.4-3.8-7-5.7-10.5c-1.9,0-1.7,1.3-1.8,2.1c-1.3,12.8-9.6,18.2-21.2,20.2c-1,0.2-1.9,0.7-2.8,1c-25.2,0.6-48.4-4.9-66.9-23.3
		c0,0,0,0,0,0c-1.8-2.4-3.5-4.8-5.3-7.2h0.1c-0.6-0.8-1.1-1.7-1.7-2.5c-4.3-4.1-9-8.1-8.6-15c-0.1-1.4-0.2-2.8-0.3-4.1
		c0-0.2,0-0.4-0.1-0.6l-0.2-0.9l-0.3-1.3l-0.3-1.4l-0.3-1.4c-0.1-0.5-0.2-1-0.3-1.5c-0.1-0.9-0.2-1.9-0.2-2.8
		c-0.2-2.3-0.4-4.5-0.5-6.8v0c0-0.4-0.1-0.9-0.1-1.3c0-0.4-0.1-0.9-0.1-1.3c0-0.4,0-0.8,0-1.3c0-0.4,0-0.8,0-1.3v-0.2
		c-0.1-0.8-0.2-1.6-0.3-2.4c0-0.4-0.1-0.8-0.1-1.2c0.5-27.5,10-50.1,35.6-63.6c1.4-0.1,2.8-0.1,4.2-0.2c2.3-3.7,6.4-5.2,9.4-8.1
		c1.3-0.3,2.6-0.6,3.9-0.9c7.2-5.1,15.2-9.1,21.3-15.7c2.6-2.9,3.9-0.5,5.4,1.1c11.5,12.2,19.8,26.3,24.9,42.2
		c1.9,6,4.7,11.2,8.9,15.9c10.2,11.5,20.2,23.3,31.5,33.8c8.9,8.3,18.7,11.5,30.5,9c4.2-0.9,8.2-0.7,12.2,0.7
		c2.7,0.9,5.2,0.9,7.9,0.3c3.7-0.9,7.4-0.9,11-0.1c9.4,2.1,17.8,0.9,25.1-6c3.1-2.9,7-5.1,10.6-7.4c1.5-1,3.4-2.2,5.1-0.5
		c1.7,1.7,1,3.9,0,5.7c-2.9,5.5-8,8.5-13.7,9.8c-8.3,1.8-16,5-23.8,8.1c-3.2-0.1-6.5,0.1-9.4-1.7c-8.2-5.1-15.8-2.7-23,2.3
		c-3.2,1-6.4,2.1-9.6,3.1c-2.2,3.4-5.6,2-8.4,1.8c-5-0.5-9.7,0-14.5,1c4.9,11.2,12.6,20.6,19.8,30.4c1.4,2,3.2,2.2,5.4,1.5
		c11.1-3.5,22.4-5.7,33.9-2c2.8,0.9,4.7-1,6.6-2.5c4.4-3.4,9-6.6,14.1-8.8c5.8-2.5,12-4,18-1.8c8.2,3.1,16.3,3.8,24.8,2.4
		c3.7-0.6,9-2.2,10.7,3.2C607.8,346.1,604.2,349.4,600.6,352z"/>
	<path class="st2" d="M0.1,1.6c0.3-0.4-0.6-1.3,0.6-1.3c1.7,0,3.3,0,5,0c260,0,520,0,780,0.1c1.8,0,4.2-1.4,5.6,1.2H0.1z"/>
	<path class="st2" d="M606.2,341.3c-1.7-5.4-7-3.8-10.7-3.2c-8.6,1.4-16.7,0.7-24.8-2.4c-6.1-2.3-12.2-0.7-18,1.8
		c-5.2,2.2-9.7,5.4-14.1,8.8c-1.9,1.5-3.8,3.4-6.6,2.5c-11.6-3.7-22.8-1.6-33.9,2c-2.3,0.7-4,0.5-5.4-1.5
		c-7.1-9.8-14.9-19.2-19.8-30.4c-2.3-0.9-3.2-2.8-3.9-5.2c9.3-0.6,17.7,4.5,26.7,2.5c3.2-1,6.4-2.1,9.6-3.1c7.2-5,14.8-7.4,23-2.3
		c3,1.8,6.2,1.5,9.4,1.7c7.8-3.2,15.5-6.3,23.8-8.1c5.6-1.2,10.8-4.3,13.7-9.8c1-1.8,1.7-4,0-5.7c-1.7-1.6-3.6-0.5-5.1,0.5
		c-3.6,2.3-7.5,4.5-10.6,7.4c-7.3,7-15.7,8.2-25.1,6c-3.7-0.8-7.4-0.8-11,0.1c-2.7,0.6-5.2,0.7-7.9-0.3c-4-1.4-8-1.6-12.2-0.7
		c-11.8,2.5-21.6-0.8-30.5-9c-11.4-10.5-21.3-22.3-31.5-33.8c-4.2-4.7-7-9.9-8.9-15.9c-5.1-15.9-13.4-30-24.9-42.2
		c-1.5-1.6-2.8-3.9-5.4-1.1c-6,6.6-14.1,10.6-21.3,15.7c2.1,2.2,5.4,3.4,6.1,6.8c1.1,1.2,2.4,2.4,2.6,4.1c1.9,1.7,3.1,3.7,3.4,6.2
		c3.8,7.5,7.6,15,11.3,22.5c0.5,1.1,0.9,2.3,1.1,3.5c1.1,5.7-1.4,11.5-5.2,11.7c-5.5,0.3-6.3-4.3-7.3-8.2
		c-2.3-8.3-4.4-16.6-7.8-24.5c-0.6-1.2-1.2-2.5-1.8-3.7v0c-0.4-0.5-0.8-1-1.2-1.5c-0.9-1.1-1.8-2.2-2.6-3.2h0
		c-3.6-2.3-7.5-3.8-11.7-4.6c-1.4,0.1-2.8,0.1-4.2,0.2c-25.6,13.5-35.1,36.1-35.6,63.6c0.1,0.3,0.3,0.5,0.3,0.8
		c0,0.1-0.1,0.3-0.2,0.4c0.1,0.8,0.2,1.6,0.3,2.4c1.2,0.5,1.7,1.4,1.9,2.6c-0.6,0-1.3,0.1-1.9,0.1h0c0,0.4,0.1,0.9,0.1,1.3
		c0,0.4,0.1,0.9,0.1,1.3v0c0.2,2.3,0.3,4.5,0.5,6.8c0.1,0.9,0.1,1.9,0.2,2.8c12.2,14,28.8,17.1,46,18.7c0.6,0.1,1.2,0.1,1.8,0.2
		c1.8,0.4,3.5,0.8,5.2,1.7c-17.4,0.9-34.5,0.2-48.5-12.5c-0.9-0.8-2.1-1.2-3.2-1.7v0h0c0,0.2,0,0.4,0.1,0.6c0.1,1.4,0.2,2.8,0.3,4.1
		c6.3,13.3,18.5,17.2,31.4,19.8c7.9,1.6,16,2.7,23.9,4.5c-13.3,1-26.2-0.1-38.7-5c-2.1-0.8-4-2-6.4-1.8h-0.1
		c1.8,2.4,3.5,4.8,5.3,7.2c0,0,0,0,0,0c18.6,18.5,41.7,23.9,66.9,23.3c1-0.3,1.9-0.8,2.8-1c11.6-2,19.8-7.4,21.2-20.2
		c0.1-0.8-0.1-2.2,1.8-2.1c1.8,3.5,3.6,7.1,5.7,10.5c0.2,0.4,0.5,0.8,0.7,1.1c0.2,0.4,0.5,0.8,0.7,1.1c0.5,0.7,1,1.5,1.5,2.2v0
		c0.5,0.7,1.1,1.4,1.7,2.1c0,0,0,0,0,0c0.3,0.3,0.6,0.7,0.9,1v0c0.1,0.2,0.2,0.3,0.4,0.4c0.3,0.2,0.5,0.4,0.8,0.6
		c0.1,0.1,0.3,0.1,0.4,0.2c0.1,0.1,0.3,0.1,0.4,0.2c0.1,0,0.3,0.1,0.4,0.1c0.1,0,0.3,0.1,0.5,0.1c1.4,0.2,2.9,0,4.2,0.3
		c1.2-0.2,2.4-0.4,3.6-0.5l2.6-0.4c0,0,0,0,0,0h0c1.6-0.4,3.1-0.7,4.7-1.1c3-0.7,5.9-1.3,8.8-2c1.4-0.3,2.8-0.6,4.2-1
		c1.2-0.3,2.3-0.5,3.5-0.8c1.2-0.3,2.3-0.6,3.5-0.9c0.5-0.1,1-0.2,1.4-0.4c6.2-1.6,7.5,4.4,11.3,6.6c1.7,0.9,3.4,1.8,5.1,2.6
		c7.1,1,13.2-1.7,19.2-4.9c5.8-6.1,12.3-8.4,20.9-6c10.1,2.8,20.5,4.5,31,5c8.4-0.4,16.4-1.9,23.3-7
		C604.2,349.4,607.8,346.1,606.2,341.3z M572.1,291c-0.3,5.5-4.4,8.6-13.6,9.7C562.9,297.6,567.4,294.4,572.1,291z M542,306.2
		c-5.1,4.5-8.5,4.4-17.4-0.8C531.1,304.1,536.2,306.3,542,306.2z M336.7,303.4c-2.4-1.7-4.8-3.3-5.4-6.4c-0.3-0.8-0.7-1.5-1.1-2.3
		c0.4,0.7,0.8,1.4,1.2,2.2v0c0.1,0.1,0.2,0.1,0.3,0.2c1.1,0.7,2.1,1.3,3.2,1.9c0.8,0.5,1.6,0.9,2.4,1.3c0.6,0.3,1.2,0.7,1.8,1
		c0,0,0,0,0,0c0.3,0.2,0.6,0.3,1,0.5c0.3,0.2,0.7,0.3,1,0.5c0.6,0.3,1.2,0.6,1.8,0.9c0.1,0,0.2,0.1,0.3,0.1c0.7,0.3,1.3,0.6,2,0.9
		c0.7,0.3,1.4,0.6,2.1,0.8c0.4,0.1,0.7,0.3,1.1,0.4c2.7,1,5.4,1.9,8.2,2.6c0.3,0.1,0.6,0.2,1,0.2c0,0,0,0,0,0
		c0.6,0.2,1.3,0.3,1.9,0.5c0.8,0.2,1.5,0.3,2.3,0.5c0.7,0.1,1.3,0.3,2,0.3c0.8,0.1,1.6,0.3,2.3,0.4c5.4,0.8,10.9,1.4,16.2,2.5
		C366.4,313.5,350.7,313.1,336.7,303.4z M437.7,259.3c5.1,5.8,9.3,10.5,13.4,15.2c7.5,8.5,15.3,16.6,24.2,23.8
		c7.5,6,15.6,8.8,25.3,6.6c3.8-0.8,7.7-0.9,12.7-0.2c-3.9,3.4-7.6,4.7-11.4,5.7c-9.4,5.3-18.8,2.4-28.2,0c-5.2,0.4-8.7-1.8-11.6-6.3
		c-6.2-9.7-12.8-19.2-19.7-28.4C438.9,271.2,438.2,266.2,437.7,259.3z M461.1,307.8c-6.4,0.9-11.4-0.8-16.5-0.9
		c-1.9,0-3.2-0.8-3.2-2.9c0-0.6-0.1-1.2-0.1-1.8v-23C448.3,288.2,454.7,297.5,461.1,307.8z M487.8,353.4
		c-10.1,2.6-20.3,4.9-30.7,6.2c-2,0.2-3.7-0.5-5-1.8c-6.1-6.3-10.3-14.1-12.6-22.2c-1.6-5.6,1-12.4,1.8-18.7c0-0.9,0.1-1.7,0.1-2.6
		c-0.1-2.3-0.4-4.9,3-4.6c6.2,0.7,12.6,0.6,18.7,2.4c0.8,0.2,1.4,1.4,2,2.1c0.5,0.8,1,1.7,1.5,2.5c7.8,10.8,14.3,22.5,22.6,32.9
		C491,351.8,490,352.8,487.8,353.4z M497.8,354.4c9.4-5.1,21.9-6.2,32.2-2.6C516.3,365.4,504.6,365.3,497.8,354.4z M599.2,349.6
		c-8.3,5.7-17.9,7.5-27.6,6.4c-10.5-1.3-20.9-3.7-33.1-6c11.8-9.3,22.5-15.9,36.7-10c6.7,2.8,13.7,1.7,20.7,0.7
		c2.5-0.3,5.9-1.8,7.2,1.3C604.5,345.4,601.7,347.8,599.2,349.6z"/>
	<path class="st3" d="M386.3,342.1c-13.3,1-26.2-0.1-38.7-5c-2.1-0.8-4-2-6.4-1.8v0l-0.1,0h0.1c-0.2-1.1-0.6-2-1.7-2.5
		c-4.3-4.1-9-8.1-8.6-15c6.3,13.3,18.5,17.2,31.4,19.8C370.3,339.3,378.4,340.4,386.3,342.1z"/>
	<path class="st3" d="M382.3,327.4c-17.4,0.9-34.5,0.2-48.5-12.5c-0.9-0.8-2.1-1.2-3.2-1.7v0h0l-0.2-0.9l-0.3-1.3l-0.3-1.4l-0.3-1.4
		c-0.1-0.5-0.2-1-0.3-1.5c12.2,14,28.8,17.1,46,18.7c0.6,0.1,1.2,0.1,1.8,0.2C378.9,326.1,380.6,326.6,382.3,327.4z"/>
	<path class="st3" d="M387.1,222.2c-1.1,3.9-5.3,4.4-7.6,6.8h0c-3.6-2.3-7.5-3.8-11.7-4.6c2.3-3.7,6.4-5.2,9.4-8.1
		c1.3-0.3,2.6-0.6,3.9-0.9C383,217.7,386.3,218.8,387.1,222.2z"/>
	<path class="st0" d="M506.2,364.9c-15.8,0-31.7,0-47.5,0.1c-0.4-0.8-0.8-1.5-1.2-2.3c1.2-0.2,2.4-0.4,3.6-0.5
		c0.9-0.1,1.8-0.3,2.6-0.4c0,0,0,0,0,0h0c12.4,1.6,24.9,0.5,37.3,0.5C502.8,363.1,504.5,364,506.2,364.9z"/>
	<path class="st0" d="M495.7,316c-2.2,3.4-5.6,2-8.4,1.8c-5-0.5-9.7,0-14.5,1c-2.3-0.9-3.2-2.8-3.9-5.2
		C478.2,312.9,486.6,318,495.7,316z"/>
	<path class="st0" d="M458.7,365H435c5.4-4.4,11.2-0.4,15-3.9l0.3-0.3c0,0,0,0,0,0c0.1,0.2,0.2,0.3,0.4,0.4c0.3,0.3,0.5,0.4,0.8,0.6
		c0.1,0.1,0.3,0.1,0.4,0.2c0.1,0.1,0.3,0.1,0.4,0.2c0.1,0,0.3,0.1,0.4,0.1c0.1,0,0.3,0.1,0.5,0.1c1.4,0.2,2.9,0,4.2,0.3
		C457.9,363.4,458.3,364.2,458.7,365z"/>
	<path class="st3" d="M330.2,294.5c-0.6,0-1.3,0.1-1.9,0.1h0c0-0.4,0-0.8,0-1.3c0-0.4,0-0.8,0-1.3v-0.2
		C329.4,292.4,330,293.3,330.2,294.5z"/>
	<path class="st2" d="M341.3,335.4L341.3,335.4C341.3,335.4,341.3,335.4,341.3,335.4c-0.6-0.8-1.2-1.7-1.7-2.5
		C340.6,333.4,341.1,334.2,341.3,335.4L341.3,335.4z"/>
	<path class="st3" d="M328.2,289.2c0,0.1-0.1,0.3-0.2,0.4c0-0.4-0.1-0.8-0.1-1.2C328,288.6,328.1,288.9,328.2,289.2z"/>
	<path class="st0" d="M466.6,316.7c7.7,10.8,14.3,22.5,22.6,32.9c1.7,2.2,0.8,3.2-1.5,3.8c-10.1,2.6-20.3,4.9-30.7,6.2
		c-2,0.2-3.7-0.4-5-1.8c-6.1-6.3-10.3-14.1-12.6-22.2c-1.6-5.6,1.1-12.4,1.8-18.7C449.7,316.8,458.2,316.7,466.6,316.7z"/>
	<path class="st0" d="M538.5,350c11.8-9.3,22.5-15.9,36.7-10c6.7,2.8,13.7,1.7,20.7,0.7c2.5-0.3,5.9-1.8,7.2,1.3
		c1.5,3.4-1.3,5.8-3.8,7.6c-8.3,5.7-17.9,7.6-27.6,6.4C561,354.7,550.6,352.2,538.5,350z"/>
	<path class="st0" d="M473.7,310.5c-5.2,0.4-8.7-1.8-11.6-6.3c-6.2-9.7-12.8-19.2-19.7-28.4c-3.5-4.6-4.1-9.5-4.6-16.4
		c5.1,5.8,9.3,10.5,13.4,15.2c7.5,8.5,15.3,16.6,24.2,23.8c7.5,6,15.6,8.8,25.3,6.6c3.8-0.8,7.7-0.9,12.7-0.2
		c-3.9,3.4-7.6,4.7-11.4,5.7c-4-2.1-8-0.8-12,0.1C484.5,311.7,479.1,308.7,473.7,310.5z"/>
	<path class="st4" d="M393,232.6c3.8,7.5,7.5,15,11.3,22.5c0.5,1.1,0.9,2.3,1.1,3.5c1.1,5.7-1.4,11.5-5.2,11.7
		c-5.5,0.3-6.3-4.3-7.4-8.2c-2.2-8.3-4.4-16.6-7.8-24.5C388.9,237.8,390.4,234.3,393,232.6z"/>
	<path class="st0" d="M461.1,307.8c-6.4,0.9-11.4-0.8-16.5-0.9c-1.9,0-3.1-0.8-3.2-2.9c0-0.6-0.1-1.2-0.1-1.8c0-7.5,0-15,0-23
		C448.3,288.2,454.7,297.5,461.1,307.8z"/>
	<path class="st0" d="M530,351.8c-13.7,13.5-25.4,13.4-32.2,2.6C507.2,349.3,519.7,348.2,530,351.8z"/>
	<path class="st3" d="M331.5,296.9c10.7,6.8,22.2,11.3,34.8,13.1c5.4,0.7,10.9,1.4,16.2,2.5c-16,1-31.8,0.6-45.7-9.1
		c-2.4-1.7-4.8-3.3-5.4-6.4C331.4,297,331.5,296.9,331.5,296.9z"/>
	<path class="st0" d="M501.1,362.3c-12.4,0-24.9,1.1-37.3-0.5c8.7-2,17.4-3.9,26.1-6.1C496,354,497.4,360,501.1,362.3z"/>
	<path class="st0" d="M441.3,314.3c-0.1-2.3-0.3-5,3.1-4.6c6.2,0.7,12.6,0.6,18.7,2.4c0.8,0.2,1.4,1.4,2,2.1
		C457.2,314.2,449.2,314.2,441.3,314.3z"/>
	<path class="st0" d="M473.7,310.5c5.4-1.8,10.8,1.2,16.3,0c3.9-0.9,8-2.2,12-0.1C492.5,315.7,483.1,312.8,473.7,310.5z"/>
	<path class="st0" d="M524.6,305.4c6.5-1.3,11.6,0.9,17.4,0.8C536.9,310.7,533.4,310.6,524.6,305.4z"/>
	<path class="st0" d="M393,232.6c-2.6,1.7-4.1,5.2-8,4.9c-0.6-1.2-1.2-2.5-1.8-3.7c1.5-3,5.3-4,6.4-7.4
		C391.5,228.1,392.7,230.1,393,232.6z"/>
	<path class="st0" d="M441.3,314.3c7.9,0,15.8-0.1,23.7-0.1c0.5,0.8,1,1.7,1.5,2.5c-8.5,0.1-16.9,0.1-25.4,0.2
		C441.3,316,441.3,315.1,441.3,314.3z"/>
	<path class="st0" d="M558.5,300.7c4.5-3.2,8.9-6.4,13.6-9.7C571.8,296.5,567.7,299.7,558.5,300.7z"/>
	<path class="st0" d="M389.6,226.4c-1,3.4-4.8,4.4-6.4,7.4c-1.3-1.6-2.6-3.1-3.9-4.7c2.4-2.5,6.5-3,7.7-6.9
		C388.1,223.5,389.4,224.6,389.6,226.4z"/>
	<path class="st3" d="M330.2,294.5c0.4,0.8,0.9,1.6,1.3,2.4c0,0-0.1,0.1-0.1,0.1C331,296.2,330.6,295.3,330.2,294.5L330.2,294.5z"/>
</g>
</svg>
